<svg xmlns="http://www.w3.org/2000/svg" xmlns:xlink="http://www.w3.org/1999/xlink" width="1920" zoomAndPan="magnify" viewBox="0 0 1440 809.999993" height="1080" preserveAspectRatio="xMidYMid meet" version="1.0"><defs><clipPath id="b58aa7a42f"><path d="M 515 81 L 984.785156 81 L 984.785156 763 L 515 763 Z M 515 81 " clip-rule="nonzero"/></clipPath></defs><rect x="-144" width="1728" fill="#ffffff" y="-80.999999" height="971.999992" fill-opacity="1"/><rect x="-144" width="1728" fill="#ffffff" y="-80.999999" height="971.999992" fill-opacity="1"/><rect x="-144" width="1728" fill="#ffffff" y="-80.999999" height="971.999992" fill-opacity="1"/><g clip-path="url(#b58aa7a42f)"><path fill="#46049e" d="M 681.871094 762.292969 C 682.035156 762.382812 682.191406 762.476562 682.355469 762.566406 C 682.355469 762.566406 560.632812 772.960938 524.003906 613.261719 C 514.839844 573.320312 513.726562 532.085938 519.597656 491.578125 C 529.882812 420.582031 573.71875 373.53125 573.71875 373.53125 C 558.574219 501.410156 697.308594 543.273438 697.308594 543.273438 C 693.144531 538.429688 690.875 535.734375 688.546875 533.085938 C 634.15625 471.230469 596.148438 401.894531 587.105469 320.328125 C 579.179688 248.832031 594.316406 182.523438 642.824219 125.957031 C 656.71875 109.753906 673.863281 96.125 689.515625 81.316406 C 587.21875 231.175781 827.144531 366.105469 827.144531 366.105469 C 821.628906 359.554688 797.277344 318.085938 795.757812 315.496094 C 784.441406 293.320312 775.558594 270.234375 771.84375 245.351562 C 768.125 220.441406 767.925781 195.609375 783.328125 171.144531 C 782.75 209.574219 786.523438 221.023438 809.90625 250.949219 C 823.667969 268.554688 838.300781 285.539062 851.769531 303.347656 C 853.8125 306.054688 855.800781 308.785156 857.773438 311.515625 C 953.113281 454.414062 905.5625 572.828125 905.5625 572.828125 C 951.734375 511.332031 967.152344 454.269531 967.152344 454.269531 C 978.570312 486.679688 983.707031 518.148438 984.089844 550.398438 C 984.757812 606.003906 972.597656 657.996094 936.246094 702.734375 C 914.273438 729.777344 886.222656 748.445312 848.457031 758.222656 C 892.886719 710.257812 928.507812 661.347656 925.835938 595.679688 C 912.867188 609.351562 886.847656 630.933594 863.496094 645.585938 C 853.535156 651.835938 840.25 645.746094 839.171875 634.347656 C 829.347656 530.1875 798.71875 442.289062 702.273438 385.835938 C 704.46875 393.6875 705.542969 397.796875 706.765625 401.863281 C 715.160156 429.714844 724.613281 457.3125 731.742188 485.460938 C 741.175781 522.710938 748.832031 560.425781 740.976562 599.050781 C 735.609375 625.441406 720.496094 637.25 692.726562 638.777344 C 659.726562 640.589844 631.734375 629.789062 607.351562 609.050781 C 603.113281 605.445312 598.914062 601.785156 593.011719 596.699219 C 610.976562 719.359375 675.914062 758.902344 681.871094 762.292969 Z M 681.871094 762.292969 " fill-opacity="1" fill-rule="nonzero"/></g></svg>